<?xml version="1.0" standalone="no"?>
<!DOCTYPE svg PUBLIC "-//W3C//DTD SVG 20010904//EN"
 "http://www.w3.org/TR/2001/REC-SVG-20010904/DTD/svg10.dtd">
<svg version="1.0" xmlns="http://www.w3.org/2000/svg"
 width="1748.000000pt" height="1240.000000pt" viewBox="0 0 1748.000000 1240.000000"
 preserveAspectRatio="xMidYMid meet">

<g transform="translate(0.000000,1240.000000) scale(0.100000,-0.100000)"
fill="#000000" stroke="none">
<path d="M7380 8660 c-87 -16 -129 -70 -181 -236 -23 -73 -69 -340 -103 -592
l-25 -183 -99 -157 c-55 -86 -206 -326 -337 -532 -131 -206 -266 -420 -301
-475 -34 -55 -77 -113 -94 -130 -43 -42 -22 -85 -249 505 -217 566 -275 698
-397 901 -190 317 -381 513 -609 624 -162 79 -209 90 -405 90 -139 0 -180 -4
-263 -24 -204 -48 -353 -117 -571 -262 -347 -231 -660 -542 -888 -880 -132
-198 -248 -473 -278 -661 -18 -111 -8 -322 20 -418 75 -260 296 -509 608 -684
172 -96 330 -150 469 -160 84 -6 138 6 157 37 21 33 -5 49 -139 82 -209 53
-334 112 -504 240 -165 124 -280 263 -344 412 -76 180 -76 420 1 668 60 193
199 439 367 650 200 251 474 504 696 642 219 137 490 234 654 234 341 0 706
-355 974 -948 85 -189 511 -1296 511 -1329 0 -42 -554 -869 -833 -1243 -72
-96 -135 -187 -141 -203 -10 -26 -8 -32 13 -49 29 -24 91 -25 137 -3 45 22
161 159 320 379 69 96 471 684 528 774 26 39 53 74 60 77 24 9 57 -16 73 -54
135 -326 383 -807 606 -1177 83 -138 324 -507 369 -565 37 -47 94 -63 141 -39
55 29 50 56 -40 195 -211 329 -356 589 -572 1024 -147 296 -328 685 -368 790
-36 95 -31 114 79 281 142 216 392 604 503 782 54 86 99 156 101 155 1 -2 -2
-46 -6 -98 -33 -379 -37 -925 -10 -1185 34 -324 113 -550 226 -643 63 -52 121
-67 265 -67 l127 0 93 47 c54 28 125 75 166 110 69 60 183 184 183 201 0 19
18 4 34 -29 28 -59 66 -103 114 -131 83 -49 254 -43 362 12 68 36 106 72 168
164 31 47 69 93 84 105 28 20 29 20 137 2 154 -26 277 -19 396 22 74 26 91 29
98 17 42 -75 114 -117 201 -116 72 1 103 9 197 52 98 46 102 38 73 -164 -18
-124 -80 -381 -113 -467 -26 -70 -65 -131 -172 -272 -166 -219 -284 -427 -369
-645 -124 -320 -141 -607 -43 -724 59 -69 175 -96 279 -63 113 35 182 110 274
299 112 230 207 566 275 975 35 211 32 200 59 200 14 0 38 11 55 25 l30 26 3
-23 c5 -38 33 -32 63 14 26 40 28 41 36 20 11 -30 30 -28 64 8 l29 30 33 -36
c34 -37 55 -41 107 -19 19 8 19 1 13 -288 -5 -248 -4 -299 8 -310 12 -12 8
-30 -30 -124 -83 -207 -122 -416 -104 -568 13 -116 47 -178 122 -217 34 -18
58 -23 122 -22 167 0 257 79 376 329 111 232 226 668 285 1080 15 105 21 123
43 143 25 22 25 23 4 17 -27 -7 -27 -5 -13 84 6 35 19 80 30 100 32 61 522
604 533 590 2 -2 9 -19 17 -37 18 -46 92 -120 143 -142 108 -48 286 -46 462 5
176 51 416 156 545 239 l65 42 100 -1 c55 0 106 -4 113 -8 16 -11 15 -83 -3
-187 -28 -160 -16 -241 44 -301 99 -99 314 -66 533 82 193 130 425 370 429
443 3 57 -21 96 -59 96 -9 0 -91 -75 -182 -167 -276 -280 -472 -403 -533 -335
-38 42 -29 140 39 421 39 166 41 194 14 221 -16 16 -33 20 -84 20 -60 0 -70
-3 -128 -43 -84 -58 -97 -62 -107 -36 -7 21 -6 36 20 177 16 86 10 101 -47
120 -33 11 -45 11 -81 -3 -27 -10 -49 -27 -57 -43 -29 -56 -57 -169 -63 -255
l-6 -89 -37 -23 c-60 -38 -215 -113 -329 -160 -268 -110 -458 -133 -542 -66
-13 10 -33 35 -43 55 -28 53 -16 60 111 61 124 2 180 18 230 67 111 108 26
262 -165 299 -117 22 -228 -10 -309 -89 -41 -40 -84 -112 -96 -162 -10 -40
-362 -347 -426 -371 -56 -22 -62 27 -34 283 16 149 16 159 0 193 -23 47 -73
69 -136 60 -66 -10 -86 -24 -181 -120 -82 -84 -160 -145 -186 -145 -64 0 -55
150 17 276 38 68 127 150 194 179 48 22 55 28 55 53 0 39 -26 60 -91 73 -101
20 -174 -17 -304 -152 -93 -97 -135 -178 -143 -274 l-5 -65 -154 -137 c-230
-205 -290 -246 -319 -222 -19 15 -18 111 2 285 18 157 12 202 -33 231 -34 22
-126 22 -168 0 -17 -8 -71 -57 -120 -107 -171 -174 -238 -181 -222 -24 8 76
67 191 130 254 28 28 78 64 114 81 55 26 63 34 63 58 0 37 -25 57 -85 71 -100
23 -177 -14 -301 -142 -92 -96 -139 -177 -150 -259 l-6 -47 -77 -35 c-164 -77
-271 -84 -387 -27 -36 17 -71 41 -78 53 -8 12 -16 60 -19 107 -7 100 -16 129
-54 164 -85 79 -304 73 -341 -10 -21 -45 -15 -63 36 -94 82 -50 113 -134 93
-245 -15 -84 -65 -179 -126 -242 -48 -50 -56 -54 -91 -51 -33 3 -42 9 -66 48
-40 64 -54 153 -39 244 15 90 45 156 104 228 52 63 56 77 30 101 -26 22 -67
30 -118 23 -85 -13 -182 -134 -229 -288 -18 -57 -42 -102 -97 -179 -181 -255
-397 -392 -532 -335 -97 40 -178 217 -202 441 -7 67 13 167 144 711 140 582
187 818 228 1144 25 204 25 657 0 780 -39 187 -108 254 -237 230z m19 -427 c6
-21 11 -42 11 -47 0 -14 -62 -107 -68 -102 -7 8 29 186 39 186 4 0 13 -17 18
-37z m-14 -604 c-40 -453 -102 -866 -158 -1044 -11 -38 -12 -35 -15 70 -3 117
16 391 52 751 l22 221 54 91 c30 50 55 90 57 88 2 -1 -4 -81 -12 -177z m4902
-1659 c39 -14 60 -57 39 -78 -18 -18 -124 -28 -145 -13 -12 8 -12 14 -1 41 11
27 30 42 76 60 1 0 15 -5 31 -10z m-1536 -296 c79 -85 213 -88 373 -7 73 37
80 29 72 -73 -20 -264 -137 -658 -217 -730 -18 -16 -19 -16 -19 12 0 16 11 76
25 133 52 215 68 365 45 426 -13 34 -50 31 -67 -6 -19 -40 -45 -262 -46 -406
l-2 -131 -55 -17 c-73 -22 -75 -22 -72 13 4 36 -27 62 -73 62 -37 0 -65 -27
-91 -85 l-17 -40 -9 75 c-5 41 -13 79 -18 84 -18 18 -29 -6 -24 -48 5 -36 3
-46 -17 -65 -31 -29 -40 -27 -78 14 -33 37 -58 43 -94 24 -16 -9 -22 -9 -25 0
-6 18 -47 13 -67 -9 -22 -25 -35 -17 -35 21 0 24 -4 30 -17 27 -13 -3 -17 -12
-15 -34 2 -25 -4 -37 -33 -63 -33 -28 -75 -42 -75 -23 2 55 32 207 48 237 33
64 548 635 572 635 4 0 17 -12 31 -26z m234 -506 c-15 -117 -35 -180 -35 -111
0 55 30 315 37 326 15 23 14 -94 -2 -215z m-251 -244 c28 -11 18 -51 -24 -95
-22 -23 -40 -46 -40 -51 0 -15 27 -8 54 13 14 11 63 34 108 50 64 24 83 27 89
17 18 -28 6 -57 -62 -153 -86 -122 -164 -247 -216 -346 l-38 -74 -3 104 c-5
168 38 442 78 509 20 33 27 36 54 26z m354 -316 c-20 -159 -119 -551 -199
-798 -68 -206 -189 -384 -233 -340 -15 15 -13 223 3 310 31 172 144 431 295
679 48 79 137 211 141 211 1 0 -2 -28 -7 -62z m-1263 -76 c-20 -122 -109 -469
-170 -667 -76 -246 -200 -444 -249 -395 -15 15 -14 225 2 313 37 203 167 482
366 785 38 59 62 88 64 77 2 -9 -4 -60 -13 -113z"/>
<path d="M12785 5427 c-44 -106 -60 -554 -22 -625 34 -62 99 -63 163 -1 30 29
30 29 49 9 28 -31 71 -26 107 12 27 30 35 32 96 33 37 1 73 -3 79 -8 7 -5 29
-6 48 -3 l35 7 0 -38 c-1 -53 -20 -99 -72 -179 -57 -88 -78 -142 -78 -205 0
-42 3 -51 23 -58 33 -13 59 2 84 45 26 46 60 166 69 248 7 55 11 63 72 128 51
54 68 66 78 57 8 -7 28 -9 49 -5 l35 7 0 -38 c-1 -53 -20 -99 -72 -179 -57
-88 -78 -142 -78 -205 0 -42 3 -51 23 -58 33 -13 59 2 84 45 26 46 60 166 69
248 7 54 12 63 67 123 58 61 60 63 74 43 22 -31 98 -27 180 10 36 17 77 30 90
30 23 0 25 -3 19 -35 -11 -55 0 -75 38 -75 55 0 156 78 156 119 0 9 -19 -3
-47 -31 -93 -89 -124 -87 -104 8 6 32 9 60 6 63 -3 3 -19 0 -36 -6 -30 -12
-30 -12 -27 20 4 42 -23 44 -35 2 -16 -52 -23 -59 -78 -82 -60 -25 -109 -29
-127 -11 -20 20 -14 27 26 30 30 2 38 7 40 25 3 17 -3 26 -22 33 -35 13 -71
-2 -90 -38 -15 -29 -76 -82 -95 -82 -7 0 -11 23 -11 55 0 64 -9 68 -59 25 -19
-16 -38 -27 -43 -24 -17 11 -7 47 22 76 36 36 37 38 6 38 -28 0 -76 -51 -76
-80 0 -19 -78 -90 -99 -90 -7 0 -11 20 -11 55 0 64 -9 68 -59 25 -19 -16 -38
-27 -43 -24 -17 11 -7 47 22 76 36 36 37 38 7 38 -27 0 -61 -32 -76 -72 -8
-20 -19 -29 -47 -34 -46 -8 -66 3 -76 44 -8 31 -21 38 -58 32 -23 -3 -24 -8
-6 -25 20 -21 20 -48 1 -85 -19 -36 -42 -39 -55 -6 -10 29 -3 64 19 90 15 17
14 18 -9 15 -18 -3 -32 -18 -52 -54 -35 -64 -80 -105 -117 -105 -23 0 -32 7
-46 37 -21 43 -18 69 30 268 30 127 45 319 26 353 -18 33 -50 28 -66 -11z m20
-278 c-8 -57 -20 -108 -25 -113 -7 -7 -10 -3 -10 10 1 46 30 309 37 328 15 41
14 -121 -2 -225z m1035 -248 c0 -11 -26 -22 -34 -14 -12 12 -5 23 14 23 11 0
20 -4 20 -9z m-545 -384 c-24 -85 -46 -127 -67 -127 -26 0 8 122 57 205 40 68
44 39 10 -78z m260 0 c-24 -85 -46 -127 -67 -127 -26 0 8 122 57 205 40 68 44
39 10 -78z"/>
<path d="M11800 4936 l0 -55 -53 -19 c-76 -29 -120 -32 -125 -9 -5 23 35 67
60 67 10 0 18 5 18 10 0 14 -33 13 -65 -2 -29 -13 -55 -55 -55 -87 0 -39 55
-35 214 16 19 6 19 -1 12 -301 -6 -273 -5 -307 9 -312 9 -4 19 -3 23 1 4 3 10
88 13 188 12 324 73 547 135 485 23 -22 10 -55 -39 -100 -31 -29 -36 -39 -24
-43 8 -4 33 5 54 19 31 21 171 76 191 76 3 0 2 -136 -1 -303 -3 -166 -2 -309
2 -316 5 -8 16 -11 24 -8 11 4 15 39 20 179 7 246 51 475 96 502 6 4 20 4 31
1 33 -10 24 -50 -20 -96 -59 -62 -49 -81 19 -35 20 13 72 37 116 52 44 15 84
31 89 36 17 14 -29 9 -87 -11 -32 -11 -57 -17 -58 -13 -1 4 0 19 1 33 3 55
-87 80 -127 37 -12 -13 -29 -41 -39 -63 l-17 -40 -9 75 c-5 41 -13 79 -18 84
-18 18 -29 -6 -24 -47 l6 -43 -54 -17 c-77 -24 -90 -23 -82 8 8 32 -9 53 -51
61 -54 10 -75 -3 -102 -63 -14 -30 -27 -52 -30 -49 -3 2 -8 37 -11 78 -6 58
-10 73 -24 76 -15 3 -18 -5 -18 -52z"/>
<path d="M9437 4929 c-32 -25 -71 -95 -63 -115 9 -23 50 -16 92 16 32 24 45
28 76 23 39 -6 98 12 98 29 0 6 -8 7 -17 3 -33 -14 -71 -17 -77 -6 -13 20 -47
12 -88 -20 -21 -17 -41 -30 -43 -27 -10 10 48 88 71 94 13 3 24 10 24 15 0 16
-45 9 -73 -12z"/>
</g>
</svg>
